PathFileType	4	(X/Y/Z)	E:\Qualisys_Data\Carbon_Farble_Plate\Data\Amateur_Runner\S14\T2\S14T2V11_c3d.trc
DataRate	CameraRate	NumFrames	NumMarkers	Units	OrigDataRate	OrigDataStartFrame	OrigNumFrames
200.000000	200.000000	4	39	mm	200.000000	0	334
Frame#	Time	LSHO			RSHO			LICST			RICST			LASIS			LHEEL			RASIS			LTROC			RTROC			SACR			LTH1			LSK4			LTH2			LTH3			RHM5			LSK2			LTH4			RTH1			LTOE			RTH2			RTH3			RTH4			LLEP			RLEP			LSK1			LSK3			RSK1			LHM5			RSK2			LFT1			RSK3			RSK4			LLME			RLME			RTOE			RHEEL			RFT1			RFT2			LFT2			
		X1	Y1	Z1	X2	Y2	Z2	X3	Y3	Z3	X4	Y4	Z4	X5	Y5	Z5	X6	Y6	Z6	X7	Y7	Z7	X8	Y8	Z8	X9	Y9	Z9	X10	Y10	Z10	X11	Y11	Z11	X12	Y12	Z12	X13	Y13	Z13	X14	Y14	Z14	X15	Y15	Z15	X16	Y16	Z16	X17	Y17	Z17	X18	Y18	Z18	X19	Y19	Z19	X20	Y20	Z20	X21	Y21	Z21	X22	Y22	Z22	X23	Y23	Z23	X24	Y24	Z24	X25	Y25	Z25	X26	Y26	Z26	X27	Y27	Z27	X28	Y28	Z28	X29	Y29	Z29	X30	Y30	Z30	X31	Y31	Z31	X32	Y32	Z32	X33	Y33	Z33	X34	Y34	Z34	X35	Y35	Z35	X36	Y36	Z36	X37	Y37	Z37	X38	Y38	Z38	X39	Y39	Z39	

1	0	-2646.1845703125	1486.704467773438	-509.905029296875	-2695.677978515625	1492.173950195312	-220.8404998779297	-2717.8173828125	1035.574096679688	-496.212890625	-2695.994384765625	1041.072631835938	-221.7099609375	-2682.226806640625	980.3955078125	-475.1206665039062	-3226.66650390625	294.0098266601562	-381.5413513183594	-2669.20947265625	998.380126953125	-242.4696197509766	-2836.856201171875	937.8192749023438	-508.1393127441406	-2790.922119140625	926.30712890625	-176.1755218505859	-2847.421875	1036.648559570312	-388.9133911132812	-2856.3076171875	708.68798828125	-516.2291259765625	-3115.58154296875	431.6231079101562	-460.8781433105469	-2923.89208984375	736.1361083984375	-486.2481079101562	-2881.472900390625	614.334716796875	-495.1727905273438	-2479.859375	136.5509948730469	-204.8308410644531	-3055.3037109375	509.7069091796875	-476.1461791992188	-2951.937744140625	642.8787231445312	-469.1796569824219	-2571.76171875	773.64990234375	-194.7922668457031	-3122.875	61.03934097290039	-424.9818115234375	-2640.05615234375	736.965087890625	-181.5939636230469	-2523.002685546875	688.7010498046875	-217.6080169677734	-2594.83544921875	647.4852905273438	-200.3072052001953	-2953.65673828125	564.8953247070312	-481.0690002441406	-2543.599365234375	595.8120727539062	-202.2285308837891	-2991.04736328125	459.8252868652344	-485.5787963867188	-3054.997314453125	380.3003234863281	-475.5404052734375	-2530.775146484375	471.9616088867188	-202.5179443359375	-3183.330078125	108.6821670532227	-476.029052734375	-2616.01416015625	477.0131225585938	-203.8392639160156	-3240.480224609375	270.4266357421875	-354.7959289550781	-2541.91162109375	370.7351379394531	-217.5740203857422	-2621.47802734375	381.1260070800781	-217.4556884765625	-3190.469970703125	262.4214477539062	-448.7192077636719	-2601.50341796875	201.8462066650391	-241.6765747070312	-2395.642333984375	153.8822784423828	-257.4017944335938	-2655.3388671875	176.8141021728516	-301.8675231933594	-2636.4521484375	146.7839202880859	-328.80322265625	-2651.677001953125	147.8735046386719	-274.5760498046875	-3259.2998046875	274.5914001464844	-408.0084533691406
2	0.005	-2630.6591796875	1489.523681640625	-508.5733642578125	-2679.37109375	1494.007202148438	-219.7210693359375	-2700.644775390625	1037.7900390625	-495.92822265625	-2678.1640625	1043.024536132812	-220.8943481445312	-2665.376220703125	983.0921020507812	-474.6152954101562	-3211.469482421875	301.6320495605469	-381.3647766113281	-2651.951171875	1000.183776855469	-241.9396362304688	-2819.6396484375	940.437255859375	-508.0326538085938	-2774.170654296875	928.376708984375	-175.8385009765625	-2830.484130859375	1039.661865234375	-389.0573425292969	-2840.505615234375	711.5504150390625	-516.2203369140625	-3102.47607421875	437.4411926269531	-460.658935546875	-2908.219970703125	739.5704345703125	-485.5615844726562	-2866.3818359375	617.2296142578125	-495.6488342285156	-2451.16796875	137.7656402587891	-203.9619903564453	-3040.970703125	514.600341796875	-475.3079528808594	-2936.618408203125	646.3074340820312	-468.6160583496094	-2558.60791015625	772.8712768554688	-194.0955505371094	-3120.6435546875	60.95581817626953	-423.6470947265625	-2625.0439453125	737.2289428710938	-182.2206420898438	-2510.209228515625	686.7692260742188	-216.7304229736328	-2580.195068359375	647.1885375976562	-200.1982879638672	-2938.886962890625	568.3966674804688	-480.9283752441406	-2530.92626953125	594.8085327148438	-202.0976257324219	-2977.070068359375	463.6659851074219	-485.6193542480469	-3041.230712890625	384.2457580566406	-475.4424133300781	-2514.1865234375	471.4461059570312	-202.4134826660156	-3177.563720703125	113.9997711181641	-476.0029602050781	-2600.100830078125	473.1535949707031	-204.4490203857422	-3226.5478515625	279.4706115722656	-355.1491088867188	-2521.879638671875	368.9608154296875	-216.6244659423828	-2601.8828125	377.1914367675781	-217.2448120117188	-3178.480712890625	268.7047424316406	-449.3709411621094	-2574.781005859375	197.9636840820312	-240.8139495849609	-2366.98291015625	158.6600341796875	-255.1917419433594	-2626.0849609375	170.0924530029297	-300.0611877441406	-2606.681884765625	141.5484466552734	-328.5364379882812	-2622.709228515625	141.6478881835938	-274.2373352050781	-3245.4013671875	283.6877746582031	-408.2058410644531
3	0.01	-2614.70361328125	1491.857299804688	-507.1465454101562	-2663.9599609375	1495.946411132812	-219.2719879150391	-2683.058837890625	1039.920532226562	-495.5294799804688	-2661.188232421875	1044.9169921875	-221.1357727050781	-2648.44580078125	985.0277709960938	-474.4423217773438	-3196.662841796875	309.2121887207031	-381.6833190917969	-2635.76953125	1001.838745117188	-242.0273895263672	-2802.8193359375	942.8748168945312	-508.358154296875	-2758.5859375	929.7168579101562	-176.5507354736328	-2813.546630859375	1042.152954101562	-388.3135070800781	-2825.038818359375	714.0911254882812	-516.8504638671875	-3088.4091796875	442.6179809570312	-459.6438598632812	-2891.1787109375	742.65380859375	-484.354248046875	-2850.40673828125	619.8732299804688	-495.6273498535156	-2422.81494140625	139.2159729003906	-202.8727874755859	-3026.472412109375	519.2083740234375	-474.8003845214844	-2920.364501953125	649.1414184570312	-468.0090942382812	-2544.61669921875	770.9970092773438	-194.2683258056641	-3118.4228515625	63.41856002807617	-424.6567077636719	-2613.19580078125	735.7194213867188	-183.2478790283203	-2496.823486328125	685.2263793945312	-217.1126098632812	-2568.903076171875	645.6409912109375	-200.5576324462891	-2923.283203125	571.6002197265625	-480.8430786132812	-2518.78369140625	592.7705078125	-202.2085418701172	-2963.43115234375	467.95361328125	-486.0357360839844	-3028.142822265625	389.3668518066406	-475.8365783691406	-2498.25390625	470.3642883300781	-202.2245178222656	-3171.978759765625	120.1848526000977	-475.5125427246094	-2584.160888671875	469.2486572265625	-204.0508270263672	-3212.723876953125	287.9048461914062	-355.5042114257812	-2503.830078125	367.5729064941406	-216.0820617675781	-2582.709716796875	373.0450134277344	-217.3278045654297	-3166.39501953125	274.9997253417969	-450.1928100585938	-2548.715576171875	194.4260711669922	-240.4460601806641	-2339.1728515625	163.2072601318359	-253.6356201171875	-2600.157470703125	164.5496215820312	-301.1073913574219	-2577.92138671875	136.1513061523438	-327.6068115234375	-2594.428466796875	135.3706512451172	-273.7277526855469	-3231.535888671875	294.0379943847656	-409.6147766113281
4	0.015	-2598.963134765625	1494.091796875	-506.12939453125	-2648.13671875	1497.440185546875	-218.2078094482422	-2666.1796875	1041.841674804688	-495.2159118652344	-2645.284912109375	1046.242309570312	-220.6597595214844	-2631.826171875	986.5169677734376	-474.0791015625	-3182.39501953125	316.5579223632812	-381.7491760253906	-2618.8916015625	1003.326354980469	-241.9429931640625	-2785.7333984375	944.9535522460938	-508.6310424804688	-2741.5615234375	931.0174560546876	-176.7975769042969	-2796.912841796875	1044.513549804688	-388.3488464355469	-2807.936279296875	716.2855224609375	-515.9124755859375	-3073.47119140625	446.6349792480469	-458.6824340820312	-2875.094482421875	744.6512451171875	-484.1713562011719	-2834.052978515625	622.1784057617188	-495.1764221191406	-2395.06787109375	141.0219879150391	-201.1346893310547	-3010.809814453125	522.9237060546875	-473.9364013671875	-2903.926513671875	651.2134399414062	-467.7427062988281	-2531.499755859375	769.1051635742188	-193.6694030761719	-3113.35791015625	69.91371154785156	-425.8221130371094	-2599.5859375	734.8292236328125	-183.1784057617188	-2484.32568359375	682.7962646484375	-216.9546966552734	-2556.89111328125	644.1546020507812	-200.9738464355469	-2906.947265625	573.9859619140625	-480.7149658203125	-2505.910400390625	590.6310424804688	-202.7183685302734	-2948.021240234375	470.4292602539062	-485.5555114746094	-3014.49169921875	392.7640686035156	-476.1963500976562	-2482.67333984375	469.1454162597656	-202.072265625	-3166.869384765625	127.5122604370117	-476.7725830078125	-2568.03564453125	465.2818908691406	-204.4794158935547	-3199.35693359375	295.8279113769531	-355.2586669921875	-2483.230224609375	366.1023864746094	-215.2013397216797	-2563.4599609375	369.1133422851562	-216.9621276855469	-3154.48974609375	281.3490600585938	-450.5860290527344	-2522.95556640625	191.4690704345703	-238.9843444824219	-2312.8671875	168.2012023925781	-252.0382537841797	-2572.041015625	159.0580444335938	-298.8388977050781	-2549.5126953125	131.5891571044922	-326.8636169433594	-2566.688232421875	130.2541198730469	-273.3820190429688	-3217.234130859375	302.4969482421875	-408.1114807128906
